<svg width="154" height="62" viewBox="0 0 154 62" fill="none" xmlns="http://www.w3.org/2000/svg">
<path d="M76.6426 28H72.5645C72.4707 28 72.4238 27.9414 72.4238 27.8242L72.4941 3.12695C72.4941 3.00977 72.541 2.95117 72.6348 2.95117H76.6777C76.7715 2.95117 76.8184 3.00977 76.8184 3.12695V11.6523L82.4609 3.0918C82.5547 2.99805 82.6426 2.95117 82.7246 2.95117H86.8555C86.9609 2.95117 86.9844 2.99805 86.9258 3.0918L80.7031 13.0234L87.6816 27.8594C87.7402 27.9531 87.6816 28 87.5059 28H83.1113C82.9941 28 82.9238 27.9531 82.9004 27.8594L78.0312 17.2773L76.7832 19.2461V27.8242C76.7832 27.9414 76.7363 28 76.6426 28ZM95.9258 28.3516C94.6602 28.3516 93.4883 28.0234 92.4102 27.3672C91.332 26.7109 90.4707 25.832 89.8262 24.7305C89.1934 23.6172 88.877 22.4043 88.877 21.0918L88.9473 3.0918C88.9473 2.99805 88.9941 2.95117 89.0879 2.95117H93.1309C93.2246 2.95117 93.2715 2.99805 93.2715 3.0918V21.0918C93.2715 21.9004 93.5293 22.5918 94.0449 23.166C94.5605 23.7285 95.1875 24.0098 95.9258 24.0098C96.6992 24.0098 97.3438 23.7285 97.8594 23.166C98.375 22.5918 98.6328 21.9004 98.6328 21.0918V3.0918C98.6328 2.99805 98.6797 2.95117 98.7734 2.95117H102.816C102.91 2.95117 102.957 2.99805 102.957 3.0918L103.027 21.0918C103.027 22.416 102.711 23.6348 102.078 24.748C101.434 25.8496 100.578 26.7285 99.5117 27.3848C98.4453 28.0293 97.25 28.3516 95.9258 28.3516ZM112.449 28H105.998C105.904 28 105.857 27.9414 105.857 27.8242L105.928 3.0918C105.928 2.99805 105.975 2.95117 106.068 2.95117H112.994C114.342 2.95117 115.566 3.2793 116.668 3.93555C117.746 4.5918 118.596 5.46484 119.217 6.55469C119.838 7.63281 120.148 8.80469 120.148 10.0703C120.148 11.1016 119.914 12.0625 119.445 12.9531C118.977 13.8438 118.42 14.5645 117.775 15.1152C118.467 15.8066 119.006 16.6094 119.393 17.5234C119.779 18.4375 119.973 19.3984 119.973 20.4062C119.973 21.8008 119.639 23.0723 118.971 24.2207C118.291 25.3691 117.383 26.2891 116.246 26.9805C115.109 27.6602 113.844 28 112.449 28ZM112.994 7.22266H110.252V12.8828H112.994C113.826 12.8828 114.5 12.5898 115.016 12.0039C115.531 11.4062 115.789 10.7617 115.789 10.0703C115.789 9.30859 115.514 8.64648 114.963 8.08398C114.412 7.50977 113.756 7.22266 112.994 7.22266ZM112.449 17.2422H110.252L110.217 23.6055H112.449C113.316 23.6055 114.061 23.2891 114.682 22.6562C115.303 22.0234 115.613 21.2734 115.613 20.4062C115.613 19.5391 115.303 18.7949 114.682 18.1738C114.061 17.5527 113.316 17.2422 112.449 17.2422ZM134.334 28H122.697C122.604 28 122.557 27.9414 122.557 27.8242L122.592 3.0918C122.592 2.99805 122.639 2.95117 122.732 2.95117H134.299C134.393 2.95117 134.439 3.00977 134.439 3.12695V7.15234C134.439 7.24609 134.393 7.29297 134.299 7.29297H126.916V12.918H134.299C134.393 12.918 134.439 12.9648 134.439 13.0586L134.475 17.1367C134.475 17.2305 134.428 17.2773 134.334 17.2773H126.916V23.5703H134.334C134.428 23.5703 134.475 23.6289 134.475 23.7461V27.8594C134.475 27.9531 134.428 28 134.334 28Z" fill="black"/>
<path d="M76.6426 59H72.5996C72.4824 59 72.4238 58.9414 72.4238 58.8242L72.4941 34.0918C72.4941 33.998 72.541 33.9512 72.6348 33.9512H84.166C84.2832 33.9512 84.3418 33.998 84.3418 34.0918V38.1523C84.3418 38.2461 84.2949 38.293 84.2012 38.293H76.8184V43.8828H84.2012C84.2949 43.8828 84.3418 43.9414 84.3418 44.0586L84.377 48.1367C84.377 48.2305 84.3184 48.2773 84.2012 48.2773H76.8184V58.8242C76.8184 58.9414 76.7598 59 76.6426 59ZM92.7969 59.3516C91.5195 59.3516 90.3418 59.0234 89.2637 58.3672C88.1973 57.7109 87.3359 56.8379 86.6797 55.748C86.0352 54.6465 85.7129 53.4395 85.7129 52.127L85.748 40.7188C85.748 39.3828 86.0703 38.1816 86.7148 37.1152C87.3477 36.0371 88.2031 35.1758 89.2812 34.5312C90.3594 33.875 91.5312 33.5469 92.7969 33.5469C94.1094 33.5469 95.2871 33.8691 96.3301 34.5137C97.3848 35.1582 98.2285 36.0254 98.8613 37.1152C99.5059 38.1934 99.8281 39.3945 99.8281 40.7188L99.8633 52.127C99.8633 53.4395 99.5469 54.6406 98.9141 55.7305C98.2695 56.832 97.4141 57.7109 96.3477 58.3672C95.2812 59.0234 94.0977 59.3516 92.7969 59.3516ZM92.7969 55.0098C93.5234 55.0098 94.1562 54.7168 94.6953 54.1309C95.2344 53.5332 95.5039 52.8652 95.5039 52.127L95.4688 40.7188C95.4688 39.9219 95.2168 39.248 94.7129 38.6973C94.209 38.1465 93.5703 37.8711 92.7969 37.8711C92.0586 37.8711 91.4258 38.1406 90.8984 38.6797C90.3711 39.2188 90.1074 39.8984 90.1074 40.7188V52.127C90.1074 52.9121 90.3711 53.5918 90.8984 54.166C91.4258 54.7285 92.0586 55.0098 92.7969 55.0098ZM106.807 59H102.729C102.635 59 102.588 58.9414 102.588 58.8242L102.658 34.0918C102.658 33.998 102.705 33.9512 102.799 33.9512H110.076C111.377 33.9512 112.572 34.2676 113.662 34.9004C114.752 35.5332 115.619 36.3828 116.264 37.4492C116.92 38.5156 117.248 39.7227 117.248 41.0703C117.248 41.9492 117.113 42.7461 116.844 43.4609C116.574 44.1758 116.258 44.7793 115.895 45.2715C115.543 45.7637 115.221 46.127 114.928 46.3613C116.229 47.8027 116.879 49.4961 116.879 51.4414L116.914 58.8242C116.914 58.9414 116.855 59 116.738 59H112.66C112.566 59 112.52 58.9648 112.52 58.8945V51.4414C112.52 50.5742 112.215 49.8242 111.605 49.1914C110.996 48.5586 110.246 48.2422 109.355 48.2422H106.982L106.947 58.8242C106.947 58.9414 106.9 59 106.807 59ZM110.076 38.2578H106.982V43.918H110.076C110.814 43.918 111.471 43.6426 112.045 43.0918C112.631 42.541 112.924 41.8672 112.924 41.0703C112.924 40.3086 112.643 39.6523 112.08 39.1016C111.518 38.5391 110.85 38.2578 110.076 38.2578ZM124.174 59H120.096C120.002 59 119.955 58.9414 119.955 58.8242L120.025 34.0918C120.025 33.998 120.072 33.9512 120.166 33.9512H124.561C124.654 33.9512 124.736 33.998 124.807 34.0918L128.094 38.8379L131.363 34.0918C131.434 33.998 131.521 33.9512 131.627 33.9512H136.039C136.145 33.9512 136.197 33.998 136.197 34.0918L136.268 58.8242C136.268 58.9414 136.221 59 136.127 59H132.049C131.955 59 131.908 58.9414 131.908 58.8242L131.873 40.4551L128.094 45.9395L124.35 40.4551L124.314 58.8242C124.314 58.9414 124.268 59 124.174 59ZM145.408 59.3516C144.131 59.3516 142.953 59.0234 141.875 58.3672C140.809 57.7109 139.953 56.8379 139.309 55.748C138.676 54.6465 138.359 53.4395 138.359 52.127V50.4746C138.359 50.3457 138.418 50.2812 138.535 50.2812H142.578C142.672 50.2812 142.719 50.3457 142.719 50.4746V52.127C142.719 52.9121 142.982 53.5918 143.51 54.166C144.037 54.7285 144.67 55.0098 145.408 55.0098C146.158 55.0098 146.797 54.7227 147.324 54.1484C147.852 53.5625 148.115 52.8887 148.115 52.127C148.115 51.248 147.541 50.4805 146.393 49.8242C146.205 49.707 145.959 49.5664 145.654 49.4023C145.361 49.2266 145.01 49.0273 144.6 48.8047C144.189 48.582 143.791 48.3652 143.404 48.1543C143.018 47.9316 142.643 47.7207 142.279 47.5215C140.967 46.748 139.988 45.7812 139.344 44.6211C138.711 43.4492 138.395 42.1367 138.395 40.6836C138.395 39.3477 138.723 38.1406 139.379 37.0625C140.035 35.9961 140.891 35.1523 141.945 34.5312C143.012 33.8984 144.166 33.582 145.408 33.582C146.686 33.582 147.857 33.8984 148.924 34.5312C149.99 35.1758 150.84 36.0312 151.473 37.0977C152.117 38.1641 152.439 39.3594 152.439 40.6836V43.6367C152.439 43.7305 152.393 43.7773 152.299 43.7773H148.256C148.162 43.7773 148.115 43.7305 148.115 43.6367L148.08 40.6836C148.08 39.8398 147.816 39.1543 147.289 38.627C146.762 38.0996 146.135 37.8359 145.408 37.8359C144.67 37.8359 144.037 38.1172 143.51 38.6797C142.982 39.2422 142.719 39.9102 142.719 40.6836C142.719 41.4688 142.883 42.125 143.211 42.6523C143.551 43.1797 144.166 43.6836 145.057 44.1641C145.15 44.2109 145.367 44.3281 145.707 44.5156C146.047 44.7031 146.422 44.9141 146.832 45.1484C147.254 45.3711 147.635 45.5762 147.975 45.7637C148.314 45.9395 148.52 46.0449 148.59 46.0801C149.785 46.748 150.729 47.5684 151.42 48.541C152.123 49.5137 152.475 50.709 152.475 52.127C152.475 53.498 152.158 54.7285 151.525 55.8184C150.881 56.9082 150.025 57.7695 148.959 58.4023C147.893 59.0352 146.709 59.3516 145.408 59.3516Z" fill="black"/>
<g clip-path="url(#clip0_3_15)">
<path d="M31.2816 0.00546504C30.7247 0.0339209 30.179 0.173977 29.6766 0.417417L7.77467 11.0316C7.2078 11.3062 6.70971 11.7057 6.3174 12.2005C5.92509 12.6953 5.64863 13.2726 5.50857 13.8897L0.105224 37.7318C-0.0195473 38.2811 -0.033511 38.85 0.0641594 39.4049C0.16183 39.9597 0.36915 40.4892 0.67385 40.962C0.747732 41.0776 0.827192 41.1895 0.911944 41.2973L16.0716 60.4147C16.464 60.9094 16.9621 61.3088 17.529 61.5832C18.0959 61.8577 18.7169 62.0001 19.3461 62L43.6569 61.9943C44.2858 61.9948 44.9067 61.8528 45.4736 61.5788C46.0405 61.3049 46.5387 60.906 46.9314 60.4119L62.0854 41.2916C62.4781 40.7967 62.7547 40.2191 62.8949 39.6018C63.035 38.9845 63.035 38.3434 62.895 37.7261L57.4832 13.884C57.3432 13.267 57.0667 12.6896 56.6744 12.1948C56.2821 11.7 55.784 11.3005 55.2171 11.0259L33.3124 0.417417C32.6805 0.111188 31.9822 -0.030462 31.2816 0.00546504Z" fill="black"/>
<path d="M31.4986 8.11924C30.7746 8.11931 30.1876 8.78072 30.1877 9.59658C30.1877 9.6091 30.1902 9.62107 30.1905 9.63352C30.1894 9.74437 30.1842 9.87792 30.1877 9.97444C30.205 10.445 30.3061 10.8052 30.367 11.2387C30.4773 12.1666 30.5697 12.9358 30.5126 13.6508C30.4572 13.9204 30.2614 14.1669 30.0869 14.3383L30.0561 14.9008C29.2693 14.9669 28.4774 15.088 27.6863 15.2702C24.2824 16.054 21.3518 17.8324 19.1205 20.2335C18.9757 20.1333 18.7224 19.949 18.6471 19.8925C18.4131 19.9246 18.1765 19.9978 17.8684 19.8158C17.2818 19.4153 16.7474 18.8624 16.1009 18.1964C15.8047 17.8779 15.5901 17.5745 15.2382 17.2674C15.1582 17.1977 15.0363 17.1034 14.9468 17.0316C14.6717 16.8091 14.3471 16.693 14.0337 16.6822C13.6307 16.6682 13.2427 16.828 12.9889 17.1509C12.5375 17.7251 12.682 18.6026 13.311 19.1113C13.3174 19.1164 13.3242 19.1204 13.3306 19.1255C13.417 19.1965 13.5229 19.2876 13.6023 19.3471C13.9758 19.6268 14.317 19.7699 14.6891 19.992C15.4732 20.4831 16.1232 20.8903 16.6387 21.3813C16.84 21.5989 16.8752 21.9825 16.902 22.1483L17.3222 22.529C15.0729 25.9623 14.032 30.203 14.6471 34.5239L14.0981 34.6859C13.9534 34.8754 13.7489 35.1736 13.5351 35.2626C12.8606 35.4781 12.1014 35.5572 11.185 35.6547C10.7547 35.691 10.3834 35.6693 9.92725 35.757C9.82686 35.7763 9.68697 35.8132 9.57712 35.8394C9.5733 35.8401 9.56973 35.8413 9.56591 35.8422C9.55992 35.8436 9.55206 35.8465 9.5463 35.8479C8.77363 36.0372 8.27727 36.7576 8.43706 37.4673C8.5969 38.1772 9.35163 38.6088 10.1289 38.4389C10.1345 38.4376 10.1427 38.4374 10.1485 38.4361C10.1573 38.434 10.165 38.4297 10.1738 38.4275C10.2821 38.4034 10.4179 38.3766 10.5127 38.3508C10.9612 38.2291 11.286 38.0501 11.6892 37.8934C12.5566 37.5779 13.275 37.3143 13.9749 37.2116C14.2672 37.1884 14.5752 37.3945 14.7284 37.4815L15.2998 37.382C16.6148 41.5171 19.3705 44.8592 22.86 46.9564L22.6219 47.5359C22.7077 47.761 22.8024 48.0655 22.7384 48.2877C22.484 48.957 22.0482 49.6634 21.5519 50.4509C21.3116 50.8147 21.0656 51.097 20.8488 51.5134C20.7969 51.6131 20.7308 51.7661 20.6807 51.8714C20.3438 52.6026 20.5909 53.4447 21.2382 53.7607C21.8894 54.0787 22.6978 53.7433 23.0477 53.0107C23.0482 53.0096 23.05 53.0089 23.0505 53.0078C23.0508 53.007 23.0501 53.0058 23.0505 53.005C23.1003 52.9011 23.1709 52.7646 23.2129 52.6669C23.3987 52.2353 23.4605 51.8655 23.5911 51.4481C23.9379 50.5644 24.1285 49.6372 24.606 49.0594C24.7367 48.9012 24.9499 48.8404 25.1709 48.7803L25.4678 48.2349C28.5099 49.4192 31.915 49.737 35.3165 48.9536C36.0925 48.7749 36.8416 48.5437 37.5658 48.2661C37.6493 48.4162 37.8044 48.7048 37.8459 48.7775C38.0705 48.8516 38.3157 48.8899 38.5154 49.1894C38.8727 49.8085 39.117 50.5408 39.4146 51.4254C39.5452 51.8427 39.6098 52.2126 39.7955 52.6442C39.8379 52.7425 39.9081 52.881 39.958 52.9851C40.3071 53.7201 41.1181 54.0567 41.7703 53.738C42.4174 53.4218 42.6648 52.5797 42.3277 51.8487C42.2776 51.7434 42.2088 51.5903 42.1569 51.4907C41.94 51.0743 41.6941 50.7948 41.4538 50.431C40.9575 49.6435 40.5458 48.9893 40.2913 48.3201C40.1849 47.9749 40.3093 47.7603 40.3922 47.536C40.3425 47.4782 40.2363 47.1523 40.1737 46.999C43.8001 44.8272 46.4749 41.3604 47.7311 37.3565C47.9007 37.3835 48.1955 37.4364 48.2913 37.4559C48.4885 37.324 48.6697 37.1519 49.0252 37.1803C49.7251 37.283 50.4435 37.5467 51.3109 37.8622C51.7141 38.0188 52.0389 38.2007 52.4874 38.3224C52.5822 38.3482 52.7179 38.3722 52.8263 38.3963C52.835 38.3985 52.8427 38.4028 52.8515 38.4048C52.8574 38.4061 52.8655 38.4064 52.8711 38.4077C53.6485 38.5774 54.4033 38.1459 54.563 37.436C54.7226 36.7263 54.2265 36.0058 53.4538 35.8166C53.3414 35.7907 53.182 35.7467 53.0728 35.7257C52.6166 35.6381 52.2454 35.6597 51.8151 35.6234C50.8986 35.526 50.1395 35.4468 49.465 35.2314C49.1899 35.1232 48.9943 34.7912 48.8991 34.6546L48.3697 34.4984C48.6442 32.4842 48.5702 30.3881 48.0952 28.2907C47.6158 26.1738 46.7686 24.2377 45.6386 22.5319C45.7744 22.4067 46.0309 22.1763 46.1036 22.1086C46.1249 21.87 46.1066 21.6199 46.3501 21.3557C46.8657 20.8647 47.5157 20.4576 48.2997 19.9664C48.6718 19.7444 49.0159 19.6012 49.3893 19.3215C49.4738 19.2582 49.5891 19.1581 49.6778 19.0857C50.3067 18.5769 50.4515 17.6994 50 17.1254C49.5485 16.5513 48.6736 16.4973 48.0448 17.006C47.9553 17.0779 47.8338 17.1717 47.7535 17.2418C47.4015 17.5489 47.1842 17.8523 46.8879 18.1709C46.2414 18.8369 45.7071 19.3925 45.1204 19.7931C44.8662 19.9432 44.4939 19.8913 44.3249 19.8812L43.8263 20.242C40.9832 17.2182 37.1122 15.2849 32.944 14.9093C32.9324 14.7322 32.9171 14.4119 32.9132 14.3156C32.7426 14.1499 32.5364 14.0086 32.4846 13.6508C32.4276 12.9358 32.5228 12.1666 32.6331 11.2387C32.694 10.8052 32.7951 10.445 32.8124 9.97444C32.8163 9.86747 32.81 9.71224 32.8096 9.59658C32.8095 8.78071 32.2226 8.11916 31.4986 8.11924ZM29.8572 18.4322L29.4678 25.407L29.4398 25.4212C29.4137 26.0452 28.9074 26.5434 28.2858 26.5434C28.0311 26.5434 27.7961 26.4605 27.6051 26.319L27.5939 26.3247L21.9552 22.2705C23.6882 20.5421 25.9048 19.2649 28.4594 18.6766C28.9261 18.5691 29.3925 18.4894 29.8572 18.4322ZM33.1429 18.4322C36.1254 18.8043 38.8836 20.174 40.9972 22.2733L35.395 26.302L35.3754 26.2934C34.8781 26.6618 34.1775 26.5704 33.7899 26.0775C33.6312 25.8756 33.5479 25.6382 33.5378 25.3985L33.5322 25.3957L33.1429 18.4322ZM19.9104 24.8757L25.0589 29.5464L25.0533 29.5748C25.518 29.9846 25.5865 30.6956 25.1989 31.1886C25.0402 31.3905 24.8277 31.5259 24.5995 31.5891L24.5939 31.6119L17.9945 33.5438C17.6586 30.4286 18.3825 27.4004 19.9104 24.8757ZM43.0504 24.8786C43.8154 26.1361 44.3946 27.5407 44.7395 29.0634C45.0802 30.5679 45.1657 32.0697 45.0252 33.5211L38.3922 31.5835L38.3866 31.555C37.7926 31.3904 37.4276 30.7776 37.5658 30.1629C37.6225 29.9111 37.7543 29.6981 37.9328 29.5407L37.93 29.5265L43.0504 24.8786ZM30.4426 29.9072H32.5519L33.8628 31.5693L33.3922 33.6432L31.4986 34.5666L29.5995 33.6404L29.1289 31.5664L30.4426 29.9072ZM37.2045 35.595C37.2941 35.5904 37.3834 35.5986 37.4706 35.6149L37.4818 35.6007L44.3081 36.7712C43.3091 39.618 41.3974 42.0842 38.8432 43.7346L36.1933 37.2428L36.2017 37.2315C35.9583 36.6578 36.2019 35.9851 36.7619 35.7115C36.9053 35.6415 37.0551 35.6027 37.2045 35.595ZM25.7395 35.6234C26.2605 35.6308 26.7277 35.9976 26.8488 36.5354C26.9055 36.7872 26.8779 37.0367 26.7844 37.257L26.804 37.2826L24.1821 43.7091C21.7308 42.1136 19.7784 39.7249 18.734 36.7939L25.5015 35.6291L25.5127 35.6433C25.5884 35.6292 25.6651 35.6224 25.7395 35.6234ZM31.4566 38.4389C31.6381 38.4321 31.8222 38.4699 31.9972 38.5554C32.2267 38.6674 32.4039 38.8439 32.5154 39.0554H32.5406L35.8768 45.1694C35.4438 45.3166 34.9987 45.4424 34.5434 45.5472C31.992 46.1348 29.4487 45.9567 27.1457 45.1608L30.4734 39.0583H30.479C30.6787 38.6797 31.0574 38.4538 31.4566 38.4389Z" fill="white"/>
</g>
<defs>
<clipPath id="clip0_3_15">
<rect width="63" height="62" fill="white"/>
</clipPath>
</defs>
</svg>
