<svg width="198" height="65" viewBox="0 0 198 65" fill="none" xmlns="http://www.w3.org/2000/svg">
<path d="M5.64258 44H1.56445C1.4707 44 1.42383 43.9414 1.42383 43.8242L1.49414 19.127C1.49414 19.0098 1.54102 18.9512 1.63477 18.9512H5.67773C5.77148 18.9512 5.81836 19.0098 5.81836 19.127V27.6523L11.4609 19.0918C11.5547 18.998 11.6426 18.9512 11.7246 18.9512H15.8555C15.9609 18.9512 15.9844 18.998 15.9258 19.0918L9.70312 29.0234L16.6816 43.8594C16.7402 43.9531 16.6816 44 16.5059 44H12.1113C11.9941 44 11.9238 43.9531 11.9004 43.8594L7.03125 33.2773L5.7832 35.2461V43.8242C5.7832 43.9414 5.73633 44 5.64258 44ZM24.1875 44.3516C22.9219 44.3516 21.75 44.0234 20.6719 43.3672C19.5938 42.7109 18.7324 41.832 18.0879 40.7305C17.4551 39.6172 17.1387 38.4043 17.1387 37.0918L17.209 19.0918C17.209 18.998 17.2559 18.9512 17.3496 18.9512H21.3926C21.4863 18.9512 21.5332 18.998 21.5332 19.0918V37.0918C21.5332 37.9004 21.791 38.5918 22.3066 39.166C22.8223 39.7285 23.4492 40.0098 24.1875 40.0098C24.9609 40.0098 25.6055 39.7285 26.1211 39.166C26.6367 38.5918 26.8945 37.9004 26.8945 37.0918V19.0918C26.8945 18.998 26.9414 18.9512 27.0352 18.9512H31.0781C31.1719 18.9512 31.2188 18.998 31.2188 19.0918L31.2891 37.0918C31.2891 38.416 30.9727 39.6348 30.3398 40.748C29.6953 41.8496 28.8398 42.7285 27.7734 43.3848C26.707 44.0293 25.5117 44.3516 24.1875 44.3516ZM40.7109 44H34.2598C34.166 44 34.1191 43.9414 34.1191 43.8242L34.1895 19.0918C34.1895 18.998 34.2363 18.9512 34.3301 18.9512H41.2559C42.6035 18.9512 43.8281 19.2793 44.9297 19.9355C46.0078 20.5918 46.8574 21.4648 47.4785 22.5547C48.0996 23.6328 48.4102 24.8047 48.4102 26.0703C48.4102 27.1016 48.1758 28.0625 47.707 28.9531C47.2383 29.8438 46.6816 30.5645 46.0371 31.1152C46.7285 31.8066 47.2676 32.6094 47.6543 33.5234C48.041 34.4375 48.2344 35.3984 48.2344 36.4062C48.2344 37.8008 47.9004 39.0723 47.2324 40.2207C46.5527 41.3691 45.6445 42.2891 44.5078 42.9805C43.3711 43.6602 42.1055 44 40.7109 44ZM41.2559 23.2227H38.5137V28.8828H41.2559C42.0879 28.8828 42.7617 28.5898 43.2773 28.0039C43.793 27.4062 44.0508 26.7617 44.0508 26.0703C44.0508 25.3086 43.7754 24.6465 43.2246 24.084C42.6738 23.5098 42.0176 23.2227 41.2559 23.2227ZM40.7109 33.2422H38.5137L38.4785 39.6055H40.7109C41.5781 39.6055 42.3223 39.2891 42.9434 38.6562C43.5645 38.0234 43.875 37.2734 43.875 36.4062C43.875 35.5391 43.5645 34.7949 42.9434 34.1738C42.3223 33.5527 41.5781 33.2422 40.7109 33.2422ZM62.5957 44H50.959C50.8652 44 50.8184 43.9414 50.8184 43.8242L50.8535 19.0918C50.8535 18.998 50.9004 18.9512 50.9941 18.9512H62.5605C62.6543 18.9512 62.7012 19.0098 62.7012 19.127V23.1523C62.7012 23.2461 62.6543 23.293 62.5605 23.293H55.1777V28.918H62.5605C62.6543 28.918 62.7012 28.9648 62.7012 29.0586L62.7363 33.1367C62.7363 33.2305 62.6895 33.2773 62.5957 33.2773H55.1777V39.5703H62.5957C62.6895 39.5703 62.7363 39.6289 62.7363 39.7461V43.8594C62.7363 43.9531 62.6895 44 62.5957 44Z" fill="#326CE5"/>
<path d="M120.643 44H116.6C116.482 44 116.424 43.9414 116.424 43.8242L116.494 19.0918C116.494 18.998 116.541 18.9512 116.635 18.9512H128.166C128.283 18.9512 128.342 18.998 128.342 19.0918V23.1523C128.342 23.2461 128.295 23.293 128.201 23.293H120.818V28.8828H128.201C128.295 28.8828 128.342 28.9414 128.342 29.0586L128.377 33.1367C128.377 33.2305 128.318 33.2773 128.201 33.2773H120.818V43.8242C120.818 43.9414 120.76 44 120.643 44ZM136.797 44.3516C135.52 44.3516 134.342 44.0234 133.264 43.3672C132.197 42.7109 131.336 41.8379 130.68 40.748C130.035 39.6465 129.713 38.4395 129.713 37.127L129.748 25.7188C129.748 24.3828 130.07 23.1816 130.715 22.1152C131.348 21.0371 132.203 20.1758 133.281 19.5312C134.359 18.875 135.531 18.5469 136.797 18.5469C138.109 18.5469 139.287 18.8691 140.33 19.5137C141.385 20.1582 142.229 21.0254 142.861 22.1152C143.506 23.1934 143.828 24.3945 143.828 25.7188L143.863 37.127C143.863 38.4395 143.547 39.6406 142.914 40.7305C142.27 41.832 141.414 42.7109 140.348 43.3672C139.281 44.0234 138.098 44.3516 136.797 44.3516ZM136.797 40.0098C137.523 40.0098 138.156 39.7168 138.695 39.1309C139.234 38.5332 139.504 37.8652 139.504 37.127L139.469 25.7188C139.469 24.9219 139.217 24.248 138.713 23.6973C138.209 23.1465 137.57 22.8711 136.797 22.8711C136.059 22.8711 135.426 23.1406 134.898 23.6797C134.371 24.2188 134.107 24.8984 134.107 25.7188V37.127C134.107 37.9121 134.371 38.5918 134.898 39.166C135.426 39.7285 136.059 40.0098 136.797 40.0098ZM150.807 44H146.729C146.635 44 146.588 43.9414 146.588 43.8242L146.658 19.0918C146.658 18.998 146.705 18.9512 146.799 18.9512H154.076C155.377 18.9512 156.572 19.2676 157.662 19.9004C158.752 20.5332 159.619 21.3828 160.264 22.4492C160.92 23.5156 161.248 24.7227 161.248 26.0703C161.248 26.9492 161.113 27.7461 160.844 28.4609C160.574 29.1758 160.258 29.7793 159.895 30.2715C159.543 30.7637 159.221 31.127 158.928 31.3613C160.229 32.8027 160.879 34.4961 160.879 36.4414L160.914 43.8242C160.914 43.9414 160.855 44 160.738 44H156.66C156.566 44 156.52 43.9648 156.52 43.8945V36.4414C156.52 35.5742 156.215 34.8242 155.605 34.1914C154.996 33.5586 154.246 33.2422 153.355 33.2422H150.982L150.947 43.8242C150.947 43.9414 150.9 44 150.807 44ZM154.076 23.2578H150.982V28.918H154.076C154.814 28.918 155.471 28.6426 156.045 28.0918C156.631 27.541 156.924 26.8672 156.924 26.0703C156.924 25.3086 156.643 24.6523 156.08 24.1016C155.518 23.5391 154.85 23.2578 154.076 23.2578ZM168.174 44H164.096C164.002 44 163.955 43.9414 163.955 43.8242L164.025 19.0918C164.025 18.998 164.072 18.9512 164.166 18.9512H168.561C168.654 18.9512 168.736 18.998 168.807 19.0918L172.094 23.8379L175.363 19.0918C175.434 18.998 175.521 18.9512 175.627 18.9512H180.039C180.145 18.9512 180.197 18.998 180.197 19.0918L180.268 43.8242C180.268 43.9414 180.221 44 180.127 44H176.049C175.955 44 175.908 43.9414 175.908 43.8242L175.873 25.4551L172.094 30.9395L168.35 25.4551L168.314 43.8242C168.314 43.9414 168.268 44 168.174 44ZM189.408 44.3516C188.131 44.3516 186.953 44.0234 185.875 43.3672C184.809 42.7109 183.953 41.8379 183.309 40.748C182.676 39.6465 182.359 38.4395 182.359 37.127V35.4746C182.359 35.3457 182.418 35.2812 182.535 35.2812H186.578C186.672 35.2812 186.719 35.3457 186.719 35.4746V37.127C186.719 37.9121 186.982 38.5918 187.51 39.166C188.037 39.7285 188.67 40.0098 189.408 40.0098C190.158 40.0098 190.797 39.7227 191.324 39.1484C191.852 38.5625 192.115 37.8887 192.115 37.127C192.115 36.248 191.541 35.4805 190.393 34.8242C190.205 34.707 189.959 34.5664 189.654 34.4023C189.361 34.2266 189.01 34.0273 188.6 33.8047C188.189 33.582 187.791 33.3652 187.404 33.1543C187.018 32.9316 186.643 32.7207 186.279 32.5215C184.967 31.748 183.988 30.7812 183.344 29.6211C182.711 28.4492 182.395 27.1367 182.395 25.6836C182.395 24.3477 182.723 23.1406 183.379 22.0625C184.035 20.9961 184.891 20.1523 185.945 19.5312C187.012 18.8984 188.166 18.582 189.408 18.582C190.686 18.582 191.857 18.8984 192.924 19.5312C193.99 20.1758 194.84 21.0312 195.473 22.0977C196.117 23.1641 196.439 24.3594 196.439 25.6836V28.6367C196.439 28.7305 196.393 28.7773 196.299 28.7773H192.256C192.162 28.7773 192.115 28.7305 192.115 28.6367L192.08 25.6836C192.08 24.8398 191.816 24.1543 191.289 23.627C190.762 23.0996 190.135 22.8359 189.408 22.8359C188.67 22.8359 188.037 23.1172 187.51 23.6797C186.982 24.2422 186.719 24.9102 186.719 25.6836C186.719 26.4688 186.883 27.125 187.211 27.6523C187.551 28.1797 188.166 28.6836 189.057 29.1641C189.15 29.2109 189.367 29.3281 189.707 29.5156C190.047 29.7031 190.422 29.9141 190.832 30.1484C191.254 30.3711 191.635 30.5762 191.975 30.7637C192.314 30.9395 192.52 31.0449 192.59 31.0801C193.785 31.748 194.729 32.5684 195.42 33.541C196.123 34.5137 196.475 35.709 196.475 37.127C196.475 38.498 196.158 39.7285 195.525 40.8184C194.881 41.9082 194.025 42.7695 192.959 43.4023C191.893 44.0352 190.709 44.3516 189.408 44.3516Z" fill="#326CE5"/>
<g clip-path="url(#clip0_3_13)">
<path d="M89.8475 11.0038C89.4585 11.0235 89.0774 11.1207 88.7265 11.2895L73.4299 18.6509C73.034 18.8414 72.6861 19.1185 72.4122 19.4616C72.1382 19.8048 71.9451 20.2052 71.8473 20.6332L68.0735 37.1688C67.9863 37.5498 67.9766 37.9444 68.0448 38.3292C68.113 38.714 68.2578 39.0812 68.4706 39.4091C68.5222 39.4893 68.5777 39.5669 68.6369 39.6417L79.2246 52.9005C79.4986 53.2436 79.8465 53.5206 80.2425 53.7109C80.6384 53.9013 81.0722 54.0001 81.5115 54L98.4906 53.9961C98.9298 53.9964 99.3634 53.8979 99.7593 53.7079C100.155 53.5179 100.503 53.2413 100.778 52.8985L111.361 39.6377C111.635 39.2945 111.829 38.8939 111.927 38.4658C112.024 38.0376 112.024 37.593 111.927 37.1649L108.147 20.6292C108.049 20.2013 107.856 19.8009 107.582 19.4577C107.308 19.1145 106.96 18.8374 106.564 18.647L91.2658 11.2895C90.8244 11.0771 90.3367 10.9789 89.8475 11.0038Z" fill="#326CE5"/>
<path d="M89.9991 16.6311C89.4934 16.6311 89.0834 17.0899 89.0835 17.6557C89.0835 17.6644 89.0853 17.6727 89.0854 17.6813C89.0847 17.7582 89.081 17.8508 89.0835 17.9178C89.0955 18.2441 89.1662 18.4939 89.2087 18.7946C89.2857 19.4382 89.3502 19.9716 89.3104 20.4675C89.2717 20.6544 89.135 20.8254 89.0131 20.9443L88.9915 21.3344C88.4421 21.3803 87.889 21.4643 87.3365 21.5906C84.9592 22.1343 82.9123 23.3676 81.354 25.0329C81.2529 24.9634 81.076 24.8356 81.0234 24.7965C80.8599 24.8187 80.6947 24.8695 80.4795 24.7432C80.0698 24.4655 79.6966 24.082 79.2451 23.6201C79.0382 23.3992 78.8884 23.1888 78.6425 22.9758C78.5867 22.9274 78.5015 22.862 78.4391 22.8123C78.2469 22.6579 78.0202 22.5774 77.8013 22.5699C77.5199 22.5602 77.2489 22.671 77.0716 22.895C76.7564 23.2932 76.8573 23.9018 77.2966 24.2546C77.301 24.2582 77.3058 24.2609 77.3103 24.2644C77.3706 24.3137 77.4446 24.3769 77.5 24.4181C77.7609 24.6121 77.9992 24.7114 78.2591 24.8654C78.8067 25.206 79.2606 25.4884 79.6207 25.8289C79.7613 25.9799 79.7859 26.2459 79.8046 26.361L80.098 26.625C78.5271 29.0061 77.8001 31.9473 78.2298 34.944L77.8463 35.0563C77.7452 35.1878 77.6024 35.3946 77.4531 35.4563C76.982 35.6058 76.4518 35.6607 75.8117 35.7283C75.5112 35.7534 75.2519 35.7384 74.9333 35.7992C74.8632 35.8126 74.7655 35.8382 74.6888 35.8563C74.6861 35.8569 74.6836 35.8577 74.681 35.8583C74.6768 35.8593 74.6713 35.8613 74.6673 35.8622C74.1276 35.9936 73.781 36.4931 73.8926 36.9854C74.0042 37.4777 74.5313 37.7771 75.0742 37.6592C75.0781 37.6583 75.0838 37.6582 75.0879 37.6573C75.094 37.6559 75.0994 37.6529 75.1055 37.6514C75.1812 37.6346 75.276 37.616 75.3422 37.5982C75.6554 37.5137 75.8823 37.3896 76.1639 37.2809C76.7697 37.0621 77.2714 36.8793 77.7602 36.808C77.9644 36.7919 78.1795 36.9349 78.2865 36.9952L78.6856 36.9263C79.604 39.7941 81.5286 42.1121 83.9657 43.5665L83.7994 43.9685C83.8594 44.1246 83.9255 44.3358 83.8808 44.4899C83.7031 44.954 83.3987 45.4439 83.0521 45.9901C82.8843 46.2425 82.7125 46.4383 82.5611 46.7271C82.5248 46.7962 82.4787 46.9023 82.4437 46.9753C82.2084 47.4824 82.381 48.0665 82.833 48.2857C83.2879 48.5062 83.8525 48.2736 84.0968 47.7655C84.0971 47.7647 84.0984 47.7642 84.0987 47.7635C84.099 47.763 84.0985 47.7621 84.0987 47.7615C84.1335 47.6895 84.1829 47.5948 84.2122 47.527C84.3419 47.2277 84.3851 46.9712 84.4763 46.6817C84.7186 46.0689 84.8517 45.4258 85.1851 45.0251C85.2765 44.9154 85.4253 44.8732 85.5797 44.8315L85.7871 44.4532C87.9117 45.2746 90.2899 45.495 92.6655 44.9517C93.2075 44.8278 93.7307 44.6674 94.2365 44.4749C94.2947 44.579 94.4031 44.7792 94.4321 44.8296C94.589 44.881 94.7602 44.9075 94.8997 45.1153C95.1492 45.5446 95.3198 46.0525 95.5276 46.666C95.6189 46.9555 95.664 47.212 95.7937 47.5113C95.8233 47.5795 95.8723 47.6755 95.9072 47.7477C96.151 48.2575 96.7174 48.4909 97.1729 48.2699C97.6249 48.0506 97.7977 47.4666 97.5622 46.9596C97.5272 46.8865 97.4791 46.7804 97.4429 46.7113C97.2914 46.4225 97.1197 46.2287 96.9519 45.9763C96.6052 45.4302 96.3177 44.9765 96.14 44.5123C96.0657 44.2729 96.1525 44.1241 96.2104 43.9685C96.1757 43.9285 96.1015 43.7024 96.0578 43.5961C98.5905 42.0899 100.459 39.6855 101.336 36.9085C101.454 36.9273 101.66 36.964 101.727 36.9775C101.865 36.886 101.992 36.7667 102.24 36.7864C102.729 36.8576 103.23 37.0405 103.836 37.2593C104.118 37.3679 104.345 37.494 104.658 37.5785C104.724 37.5963 104.819 37.613 104.895 37.6297C104.901 37.6312 104.906 37.6342 104.912 37.6356C104.916 37.6365 104.922 37.6367 104.926 37.6376C105.469 37.7553 105.996 37.4561 106.107 36.9637C106.219 36.4714 105.872 35.9718 105.333 35.8406C105.254 35.8226 105.143 35.7921 105.067 35.7775C104.748 35.7167 104.489 35.7317 104.188 35.7066C103.548 35.639 103.018 35.5841 102.547 35.4347C102.355 35.3596 102.218 35.1294 102.152 35.0347L101.782 34.9263C101.974 33.5294 101.922 32.0756 101.59 30.621C101.255 29.1528 100.664 27.81 99.8746 26.627C99.9695 26.5401 100.149 26.3804 100.199 26.3334C100.214 26.1679 100.201 25.9944 100.372 25.8112C100.732 25.4707 101.186 25.1883 101.733 24.8477C101.993 24.6937 102.233 24.5944 102.494 24.4004C102.553 24.3565 102.634 24.2871 102.696 24.2369C103.135 23.884 103.236 23.2754 102.921 22.8773C102.605 22.4792 101.994 22.4417 101.555 22.7945C101.493 22.8444 101.408 22.9094 101.352 22.9581C101.106 23.1711 100.954 23.3814 100.747 23.6024C100.296 24.0643 99.9224 24.4497 99.5127 24.7275C99.3351 24.8316 99.0751 24.7956 98.9571 24.7886L98.6089 25.0388C96.6232 22.9416 93.9196 21.6008 91.0085 21.3404C91.0004 21.2175 90.9897 20.9954 90.987 20.9285C90.8678 20.8137 90.7239 20.7156 90.6877 20.4675C90.6479 19.9716 90.7143 19.4382 90.7914 18.7946C90.8339 18.4939 90.9045 18.2441 90.9166 17.9178C90.9193 17.8436 90.9149 17.7359 90.9146 17.6557C90.9146 17.0899 90.5047 16.631 89.9991 16.6311ZM88.8526 23.7837L88.5807 28.621L88.5611 28.6309C88.5429 29.0636 88.1893 29.4092 87.7551 29.4092C87.5773 29.4092 87.4131 29.3516 87.2797 29.2535L87.2719 29.2574L83.3338 26.4457C84.5442 25.247 86.0923 24.3611 87.8764 23.9531C88.2023 23.8786 88.5281 23.8233 88.8526 23.7837ZM91.1474 23.7837C93.2304 24.0417 95.1568 24.9917 96.633 26.4476L92.7203 29.2417L92.7066 29.2358C92.3593 29.4912 91.87 29.4279 91.5993 29.086C91.4884 28.946 91.4303 28.7813 91.4233 28.6151L91.4193 28.6131L91.1474 23.7837ZM81.9057 28.2525L85.5014 31.4919L85.4975 31.5116C85.8221 31.7958 85.8699 32.2889 85.5993 32.6308C85.4884 32.7708 85.34 32.8648 85.1806 32.9086L85.1767 32.9244L80.5676 34.2642C80.333 32.1037 80.8385 30.0035 81.9057 28.2525ZM98.067 28.2545C98.6012 29.1267 99.0058 30.1008 99.2466 31.1569C99.4846 32.2003 99.5443 33.2419 99.4462 34.2485L94.8136 32.9047L94.8097 32.885C94.3948 32.7708 94.1399 32.3458 94.2365 31.9195C94.276 31.7448 94.3681 31.5971 94.4927 31.4879L94.4908 31.4781L98.067 28.2545ZM89.2615 31.7421H90.7346L91.6502 32.8948L91.3215 34.3332L89.9991 34.9736L88.6727 34.3312L88.344 32.8928L89.2615 31.7421ZM93.9841 35.6869C94.0467 35.6837 94.109 35.6894 94.17 35.7007L94.1778 35.6908L98.9454 36.5026C98.2476 38.477 96.9125 40.1875 95.1286 41.3321L93.2779 36.8297L93.2837 36.8218C93.1137 36.424 93.2839 35.9574 93.675 35.7677C93.7751 35.7191 93.8798 35.6922 93.9841 35.6869ZM85.9768 35.7066C86.3407 35.7117 86.667 35.9661 86.7515 36.3391C86.7911 36.5137 86.7719 36.6867 86.7065 36.8396L86.7202 36.8573L84.8891 41.3144C83.1771 40.2079 81.8135 38.5511 81.084 36.5184L85.8105 35.7105L85.8184 35.7204C85.8712 35.7106 85.9249 35.7058 85.9768 35.7066ZM89.9697 37.6593C90.0964 37.6546 90.225 37.6808 90.3473 37.74C90.5075 37.8178 90.6313 37.9401 90.7092 38.0868H90.7268L93.0568 42.3271C92.7544 42.4292 92.4435 42.5165 92.1256 42.5892C90.3436 42.9967 88.5673 42.8732 86.9589 42.3212L89.283 38.0888H89.2869C89.4264 37.8262 89.6909 37.6696 89.9697 37.6593Z" fill="white"/>
</g>
<defs>
<clipPath id="clip0_3_13">
<rect width="44" height="43" fill="white" transform="translate(68 11)"/>
</clipPath>
</defs>
</svg>
